<svg version="1.1" id="style1-svg" width="400" height="400" xmlns="http://www.w3.org/2000/svg" xmlns:xlink="http://www.w3.org/1999/xlink" x="0px" y="0px" viewBox="0 0 279.1 346.6" style="enable-background:new 0 0 279.1 346.6;" xml:space="preserve"><style type="text/css">            .frame-color {                fill: #000000;            }            .background-color {                fill: #FFFFFF;            }            .text-color {                fill: #FFFFFF;            }        </style><rect class="background-color" x="10.6" y="10.5" width="258.1" height="258.1"></rect><path class="frame-color" d="M13.7,346.6h251.7c7.6,0,13.7-6.2,13.7-13.7V13.7c0-7.6-6.2-13.7-13.7-13.7H13.8C6.2,0,0.1,6.2,0,13.7v319.2C0,340.5,6.2,346.6,13.7,346.6z M10.6,17.9c0-4.1,3.3-7.4,7.4-7.4h243.2c4.1,0,7.4,3.3,7.4,7.4v243.3c0,4.1-3.3,7.4-7.4,7.4H18c-4.1,0-7.4-3.3-7.4-7.4V17.9z"></path><path class="text-color" d="M54.9,320.2c4.6-0.1,7-1.7,7-5c0-2.7-1.5-4.2-4.6-4.8c-1.4-0.2-3-0.4-4.7-0.7c-3.1-0.5-5.4-1.6-7-3.4s-2.5-4-2.5-6.6c0-3.1,1-5.6,3.1-7.5c2-1.9,4.8-2.8,8.5-2.9c4.4,0.1,8.3,1.3,11.5,3.7l-3,4.4c-2.7-1.8-5.6-2.7-8.8-2.7c-1.7,0-3,0.4-4.2,1.2c-1.2,0.9-1.8,2.1-1.8,3.9c0,1,0.4,2,1.2,2.8s2.1,1.4,3.8,1.8c1,0.2,2.3,0.4,4,0.6c3.3,0.5,5.8,1.7,7.4,3.6s2.4,4.1,2.4,6.6c-0.2,6.8-4.3,10.3-12.5,10.4c-5.3,0-9.8-1.6-13.6-4.9l3.5-4.1C47.6,319,51,320.2,54.9,320.2z M96.9,315.4c-0.8,3.3-2.3,5.8-4.5,7.6c-2.3,1.8-4.9,2.6-8,2.6c-2.8-0.1-5.1-0.7-7-2.1c-1.9-1.3-3.3-2.7-4.2-4.3c-0.3-0.5-0.5-1-0.7-1.5s-0.4-1.1-0.5-1.9c-0.2-1.4-0.4-4.2-0.4-8.3c0-4.1,0.1-6.9,0.4-8.3s0.7-2.5,1.2-3.4c0.9-1.6,2.2-3.1,4.2-4.4c1.9-1.3,4.2-2,7-2c3.4,0,6.2,1,8.4,3.1c2.2,2,3.5,4.5,4.1,7.5h-5.7c-0.4-1.4-1.2-2.7-2.4-3.7s-2.7-1.5-4.4-1.5c-1.3,0-2.4,0.3-3.3,0.8s-1.7,1.1-2.2,1.8c-0.7,0.8-1.2,1.8-1.4,3c-0.3,1.3-0.4,3.7-0.4,7.2s0.1,5.9,0.4,7.1c0.2,1.2,0.7,2.2,1.4,3c0.6,0.7,1.3,1.3,2.2,1.8s2,0.8,3.3,0.8c3,0,5.3-1.6,6.8-4.9L96.9,315.4L96.9,315.4z M119.1,317.4h-13.5l-2.7,8h-5.7l12.9-35.6h4.5l12.9,35.6h-5.7L119.1,317.4z M117.4,312.6l-5.2-15.6h-0.1l-5.2,15.6H117.4z M131.2,289.7h5.1l16.1,25.3h0.1v-25.3h5.4v35.6h-5.1l-16-25.3h-0.1v25.3h-5.4v-35.6H131.2z M177.4,289.7h5.1l10.2,23.2l10-23.2h5.1v35.6h-5.4v-22.2h-0.1l-7.4,17.1h-4.5l-7.4-17.1l0,0v22.2h-5.4v-35.6H177.4z M215.3,289.7H238v5.1h-17.3V305h14.8v4.8h-14.8v10.4H238v5.1h-22.7V289.7z"></path><g class="addsvg"><svg version="1.1" baseProfile="tiny" xmlns="http://www.w3.org/2000/svg" width="400" height="400" x="0" y="0" viewBox="0 0 400 400"><rect xmlns="http://www.w3.org/2000/svg" shape-rendering="optimizeSpeed" width="400" height="400" fill="#fff" x="0" y="0"></rect><rect shape-rendering="optimizeSpeed" fill="#000" x="10" y="10" width="13.203448275862069" height="13.203448275862069"></rect><rect shape-rendering="optimizeSpeed" fill="#000" x="23.10344827586207" y="10" width="13.203448275862069" height="13.203448275862069"></rect><rect shape-rendering="optimizeSpeed" fill="#000" x="36.20689655172414" y="10" width="13.203448275862069" height="13.203448275862069"></rect><rect shape-rendering="optimizeSpeed" fill="#000" x="49.310344827586206" y="10" width="13.203448275862069" height="13.203448275862069"></rect><rect shape-rendering="optimizeSpeed" fill="#000" x="62.41379310344828" y="10" width="13.203448275862069" height="13.203448275862069"></rect><rect shape-rendering="optimizeSpeed" fill="#000" x="75.51724137931035" y="10" width="13.203448275862069" height="13.203448275862069"></rect><rect shape-rendering="optimizeSpeed" fill="#000" x="88.62068965517241" y="10" width="13.203448275862069" height="13.203448275862069"></rect><rect shape-rendering="optimizeSpeed" fill="#000" x="127.93103448275862" y="10" width="13.203448275862069" height="13.203448275862069"></rect><rect shape-rendering="optimizeSpeed" fill="#000" x="141.0344827586207" y="10" width="13.203448275862069" height="13.203448275862069"></rect><rect shape-rendering="optimizeSpeed" fill="#000" x="154.13793103448276" y="10" width="13.203448275862069" height="13.203448275862069"></rect><rect shape-rendering="optimizeSpeed" fill="#000" x="193.44827586206898" y="10" width="13.203448275862069" height="13.203448275862069"></rect><rect shape-rendering="optimizeSpeed" fill="#000" x="232.75862068965517" y="10" width="13.203448275862069" height="13.203448275862069"></rect><rect shape-rendering="optimizeSpeed" fill="#000" x="298.2758620689655" y="10" width="13.203448275862069" height="13.203448275862069"></rect><rect shape-rendering="optimizeSpeed" fill="#000" x="311.3793103448276" y="10" width="13.203448275862069" height="13.203448275862069"></rect><rect shape-rendering="optimizeSpeed" fill="#000" x="324.48275862068965" y="10" width="13.203448275862069" height="13.203448275862069"></rect><rect shape-rendering="optimizeSpeed" fill="#000" x="337.58620689655174" y="10" width="13.203448275862069" height="13.203448275862069"></rect><rect shape-rendering="optimizeSpeed" fill="#000" x="350.6896551724138" y="10" width="13.203448275862069" height="13.203448275862069"></rect><rect shape-rendering="optimizeSpeed" fill="#000" x="363.7931034482759" y="10" width="13.203448275862069" height="13.203448275862069"></rect><rect shape-rendering="optimizeSpeed" fill="#000" x="376.89655172413796" y="10" width="13.203448275862069" height="13.203448275862069"></rect><rect shape-rendering="optimizeSpeed" fill="#000" x="10" y="23.10344827586207" width="13.203448275862069" height="13.203448275862069"></rect><rect shape-rendering="optimizeSpeed" fill="#000" x="88.62068965517241" y="23.10344827586207" width="13.203448275862069" height="13.203448275862069"></rect><rect shape-rendering="optimizeSpeed" fill="#000" x="154.13793103448276" y="23.10344827586207" width="13.203448275862069" height="13.203448275862069"></rect><rect shape-rendering="optimizeSpeed" fill="#000" x="167.24137931034483" y="23.10344827586207" width="13.203448275862069" height="13.203448275862069"></rect><rect shape-rendering="optimizeSpeed" fill="#000" x="272.0689655172414" y="23.10344827586207" width="13.203448275862069" height="13.203448275862069"></rect><rect shape-rendering="optimizeSpeed" fill="#000" x="298.2758620689655" y="23.10344827586207" width="13.203448275862069" height="13.203448275862069"></rect><rect shape-rendering="optimizeSpeed" fill="#000" x="376.89655172413796" y="23.10344827586207" width="13.203448275862069" height="13.203448275862069"></rect><rect shape-rendering="optimizeSpeed" fill="#000" x="10" y="36.20689655172414" width="13.203448275862069" height="13.203448275862069"></rect><rect shape-rendering="optimizeSpeed" fill="#000" x="36.20689655172414" y="36.20689655172414" width="13.203448275862069" height="13.203448275862069"></rect><rect shape-rendering="optimizeSpeed" fill="#000" x="49.310344827586206" y="36.20689655172414" width="13.203448275862069" height="13.203448275862069"></rect><rect shape-rendering="optimizeSpeed" fill="#000" x="62.41379310344828" y="36.20689655172414" width="13.203448275862069" height="13.203448275862069"></rect><rect shape-rendering="optimizeSpeed" fill="#000" x="88.62068965517241" y="36.20689655172414" width="13.203448275862069" height="13.203448275862069"></rect><rect shape-rendering="optimizeSpeed" fill="#000" x="127.93103448275862" y="36.20689655172414" width="13.203448275862069" height="13.203448275862069"></rect><rect shape-rendering="optimizeSpeed" fill="#000" x="141.0344827586207" y="36.20689655172414" width="13.203448275862069" height="13.203448275862069"></rect><rect shape-rendering="optimizeSpeed" fill="#000" x="154.13793103448276" y="36.20689655172414" width="13.203448275862069" height="13.203448275862069"></rect><rect shape-rendering="optimizeSpeed" fill="#000" x="206.55172413793105" y="36.20689655172414" width="13.203448275862069" height="13.203448275862069"></rect><rect shape-rendering="optimizeSpeed" fill="#000" x="245.86206896551724" y="36.20689655172414" width="13.203448275862069" height="13.203448275862069"></rect><rect shape-rendering="optimizeSpeed" fill="#000" x="298.2758620689655" y="36.20689655172414" width="13.203448275862069" height="13.203448275862069"></rect><rect shape-rendering="optimizeSpeed" fill="#000" x="324.48275862068965" y="36.20689655172414" width="13.203448275862069" height="13.203448275862069"></rect><rect shape-rendering="optimizeSpeed" fill="#000" x="337.58620689655174" y="36.20689655172414" width="13.203448275862069" height="13.203448275862069"></rect><rect shape-rendering="optimizeSpeed" fill="#000" x="350.6896551724138" y="36.20689655172414" width="13.203448275862069" height="13.203448275862069"></rect><rect shape-rendering="optimizeSpeed" fill="#000" x="376.89655172413796" y="36.20689655172414" width="13.203448275862069" height="13.203448275862069"></rect><rect shape-rendering="optimizeSpeed" fill="#000" x="10" y="49.310344827586206" width="13.203448275862069" height="13.203448275862069"></rect><rect shape-rendering="optimizeSpeed" fill="#000" x="36.20689655172414" y="49.310344827586206" width="13.203448275862069" height="13.203448275862069"></rect><rect shape-rendering="optimizeSpeed" fill="#000" x="49.310344827586206" y="49.310344827586206" width="13.203448275862069" height="13.203448275862069"></rect><rect shape-rendering="optimizeSpeed" fill="#000" x="62.41379310344828" y="49.310344827586206" width="13.203448275862069" height="13.203448275862069"></rect><rect shape-rendering="optimizeSpeed" fill="#000" x="88.62068965517241" y="49.310344827586206" width="13.203448275862069" height="13.203448275862069"></rect><rect shape-rendering="optimizeSpeed" fill="#000" x="114.82758620689656" y="49.310344827586206" width="13.203448275862069" height="13.203448275862069"></rect><rect shape-rendering="optimizeSpeed" fill="#000" x="141.0344827586207" y="49.310344827586206" width="13.203448275862069" height="13.203448275862069"></rect><rect shape-rendering="optimizeSpeed" fill="#000" x="154.13793103448276" y="49.310344827586206" width="13.203448275862069" height="13.203448275862069"></rect><rect shape-rendering="optimizeSpeed" fill="#000" x="180.3448275862069" y="49.310344827586206" width="13.203448275862069" height="13.203448275862069"></rect><rect shape-rendering="optimizeSpeed" fill="#000" x="206.55172413793105" y="49.310344827586206" width="13.203448275862069" height="13.203448275862069"></rect><rect shape-rendering="optimizeSpeed" fill="#000" x="232.75862068965517" y="49.310344827586206" width="13.203448275862069" height="13.203448275862069"></rect><rect shape-rendering="optimizeSpeed" fill="#000" x="258.9655172413793" y="49.310344827586206" width="13.203448275862069" height="13.203448275862069"></rect><rect shape-rendering="optimizeSpeed" fill="#000" x="272.0689655172414" y="49.310344827586206" width="13.203448275862069" height="13.203448275862069"></rect><rect shape-rendering="optimizeSpeed" fill="#000" x="298.2758620689655" y="49.310344827586206" width="13.203448275862069" height="13.203448275862069"></rect><rect shape-rendering="optimizeSpeed" fill="#000" x="324.48275862068965" y="49.310344827586206" width="13.203448275862069" height="13.203448275862069"></rect><rect shape-rendering="optimizeSpeed" fill="#000" x="337.58620689655174" y="49.310344827586206" width="13.203448275862069" height="13.203448275862069"></rect><rect shape-rendering="optimizeSpeed" fill="#000" x="350.6896551724138" y="49.310344827586206" width="13.203448275862069" height="13.203448275862069"></rect><rect shape-rendering="optimizeSpeed" fill="#000" x="376.89655172413796" y="49.310344827586206" width="13.203448275862069" height="13.203448275862069"></rect><rect shape-rendering="optimizeSpeed" fill="#000" x="10" y="62.41379310344828" width="13.203448275862069" height="13.203448275862069"></rect><rect shape-rendering="optimizeSpeed" fill="#000" x="36.20689655172414" y="62.41379310344828" width="13.203448275862069" height="13.203448275862069"></rect><rect shape-rendering="optimizeSpeed" fill="#000" x="49.310344827586206" y="62.41379310344828" width="13.203448275862069" height="13.203448275862069"></rect><rect shape-rendering="optimizeSpeed" fill="#000" x="62.41379310344828" y="62.41379310344828" width="13.203448275862069" height="13.203448275862069"></rect><rect shape-rendering="optimizeSpeed" fill="#000" x="88.62068965517241" y="62.41379310344828" width="13.203448275862069" height="13.203448275862069"></rect><rect shape-rendering="optimizeSpeed" fill="#000" x="114.82758620689656" y="62.41379310344828" width="13.203448275862069" height="13.203448275862069"></rect><rect shape-rendering="optimizeSpeed" fill="#000" x="141.0344827586207" y="62.41379310344828" width="13.203448275862069" height="13.203448275862069"></rect><rect shape-rendering="optimizeSpeed" fill="#000" x="167.24137931034483" y="62.41379310344828" width="13.203448275862069" height="13.203448275862069"></rect><rect shape-rendering="optimizeSpeed" fill="#000" x="180.3448275862069" y="62.41379310344828" width="13.203448275862069" height="13.203448275862069"></rect><rect shape-rendering="optimizeSpeed" fill="#000" x="219.6551724137931" y="62.41379310344828" width="13.203448275862069" height="13.203448275862069"></rect><rect shape-rendering="optimizeSpeed" fill="#000" x="232.75862068965517" y="62.41379310344828" width="13.203448275862069" height="13.203448275862069"></rect><rect shape-rendering="optimizeSpeed" fill="#000" x="245.86206896551724" y="62.41379310344828" width="13.203448275862069" height="13.203448275862069"></rect><rect shape-rendering="optimizeSpeed" fill="#000" x="258.9655172413793" y="62.41379310344828" width="13.203448275862069" height="13.203448275862069"></rect><rect shape-rendering="optimizeSpeed" fill="#000" x="272.0689655172414" y="62.41379310344828" width="13.203448275862069" height="13.203448275862069"></rect><rect shape-rendering="optimizeSpeed" fill="#000" x="298.2758620689655" y="62.41379310344828" width="13.203448275862069" height="13.203448275862069"></rect><rect shape-rendering="optimizeSpeed" fill="#000" x="324.48275862068965" y="62.41379310344828" width="13.203448275862069" height="13.203448275862069"></rect><rect shape-rendering="optimizeSpeed" fill="#000" x="337.58620689655174" y="62.41379310344828" width="13.203448275862069" height="13.203448275862069"></rect><rect shape-rendering="optimizeSpeed" fill="#000" x="350.6896551724138" y="62.41379310344828" width="13.203448275862069" height="13.203448275862069"></rect><rect shape-rendering="optimizeSpeed" fill="#000" x="376.89655172413796" y="62.41379310344828" width="13.203448275862069" height="13.203448275862069"></rect><rect shape-rendering="optimizeSpeed" fill="#000" x="10" y="75.51724137931035" width="13.203448275862069" height="13.203448275862069"></rect><rect shape-rendering="optimizeSpeed" fill="#000" x="88.62068965517241" y="75.51724137931035" width="13.203448275862069" height="13.203448275862069"></rect><rect shape-rendering="optimizeSpeed" fill="#000" x="127.93103448275862" y="75.51724137931035" width="13.203448275862069" height="13.203448275862069"></rect><rect shape-rendering="optimizeSpeed" fill="#000" x="141.0344827586207" y="75.51724137931035" width="13.203448275862069" height="13.203448275862069"></rect><rect shape-rendering="optimizeSpeed" fill="#000" x="219.6551724137931" y="75.51724137931035" width="13.203448275862069" height="13.203448275862069"></rect><rect shape-rendering="optimizeSpeed" fill="#000" x="245.86206896551724" y="75.51724137931035" width="13.203448275862069" height="13.203448275862069"></rect><rect shape-rendering="optimizeSpeed" fill="#000" x="272.0689655172414" y="75.51724137931035" width="13.203448275862069" height="13.203448275862069"></rect><rect shape-rendering="optimizeSpeed" fill="#000" x="298.2758620689655" y="75.51724137931035" width="13.203448275862069" height="13.203448275862069"></rect><rect shape-rendering="optimizeSpeed" fill="#000" x="376.89655172413796" y="75.51724137931035" width="13.203448275862069" height="13.203448275862069"></rect><rect shape-rendering="optimizeSpeed" fill="#000" x="10" y="88.62068965517241" width="13.203448275862069" height="13.203448275862069"></rect><rect shape-rendering="optimizeSpeed" fill="#000" x="23.10344827586207" y="88.62068965517241" width="13.203448275862069" height="13.203448275862069"></rect><rect shape-rendering="optimizeSpeed" fill="#000" x="36.20689655172414" y="88.62068965517241" width="13.203448275862069" height="13.203448275862069"></rect><rect shape-rendering="optimizeSpeed" fill="#000" x="49.310344827586206" y="88.62068965517241" width="13.203448275862069" height="13.203448275862069"></rect><rect shape-rendering="optimizeSpeed" fill="#000" x="62.41379310344828" y="88.62068965517241" width="13.203448275862069" height="13.203448275862069"></rect><rect shape-rendering="optimizeSpeed" fill="#000" x="75.51724137931035" y="88.62068965517241" width="13.203448275862069" height="13.203448275862069"></rect><rect shape-rendering="optimizeSpeed" fill="#000" x="88.62068965517241" y="88.62068965517241" width="13.203448275862069" height="13.203448275862069"></rect><rect shape-rendering="optimizeSpeed" fill="#000" x="114.82758620689656" y="88.62068965517241" width="13.203448275862069" height="13.203448275862069"></rect><rect shape-rendering="optimizeSpeed" fill="#000" x="141.0344827586207" y="88.62068965517241" width="13.203448275862069" height="13.203448275862069"></rect><rect shape-rendering="optimizeSpeed" fill="#000" x="167.24137931034483" y="88.62068965517241" width="13.203448275862069" height="13.203448275862069"></rect><rect shape-rendering="optimizeSpeed" fill="#000" x="193.44827586206898" y="88.62068965517241" width="13.203448275862069" height="13.203448275862069"></rect><rect shape-rendering="optimizeSpeed" fill="#000" x="219.6551724137931" y="88.62068965517241" width="13.203448275862069" height="13.203448275862069"></rect><rect shape-rendering="optimizeSpeed" fill="#000" x="245.86206896551724" y="88.62068965517241" width="13.203448275862069" height="13.203448275862069"></rect><rect shape-rendering="optimizeSpeed" fill="#000" x="272.0689655172414" y="88.62068965517241" width="13.203448275862069" height="13.203448275862069"></rect><rect shape-rendering="optimizeSpeed" fill="#000" x="298.2758620689655" y="88.62068965517241" width="13.203448275862069" height="13.203448275862069"></rect><rect shape-rendering="optimizeSpeed" fill="#000" x="311.3793103448276" y="88.62068965517241" width="13.203448275862069" height="13.203448275862069"></rect><rect shape-rendering="optimizeSpeed" fill="#000" x="324.48275862068965" y="88.62068965517241" width="13.203448275862069" height="13.203448275862069"></rect><rect shape-rendering="optimizeSpeed" fill="#000" x="337.58620689655174" y="88.62068965517241" width="13.203448275862069" height="13.203448275862069"></rect><rect shape-rendering="optimizeSpeed" fill="#000" x="350.6896551724138" y="88.62068965517241" width="13.203448275862069" height="13.203448275862069"></rect><rect shape-rendering="optimizeSpeed" fill="#000" x="363.7931034482759" y="88.62068965517241" width="13.203448275862069" height="13.203448275862069"></rect><rect shape-rendering="optimizeSpeed" fill="#000" x="376.89655172413796" y="88.62068965517241" width="13.203448275862069" height="13.203448275862069"></rect><rect shape-rendering="optimizeSpeed" fill="#000" x="127.93103448275862" y="101.72413793103449" width="13.203448275862069" height="13.203448275862069"></rect><rect shape-rendering="optimizeSpeed" fill="#000" x="167.24137931034483" y="101.72413793103449" width="13.203448275862069" height="13.203448275862069"></rect><rect shape-rendering="optimizeSpeed" fill="#000" x="193.44827586206898" y="101.72413793103449" width="13.203448275862069" height="13.203448275862069"></rect><rect shape-rendering="optimizeSpeed" fill="#000" x="219.6551724137931" y="101.72413793103449" width="13.203448275862069" height="13.203448275862069"></rect><rect shape-rendering="optimizeSpeed" fill="#000" x="245.86206896551724" y="101.72413793103449" width="13.203448275862069" height="13.203448275862069"></rect><rect shape-rendering="optimizeSpeed" fill="#000" x="258.9655172413793" y="101.72413793103449" width="13.203448275862069" height="13.203448275862069"></rect><rect shape-rendering="optimizeSpeed" fill="#000" x="272.0689655172414" y="101.72413793103449" width="13.203448275862069" height="13.203448275862069"></rect><rect shape-rendering="optimizeSpeed" fill="#000" x="10" y="114.82758620689656" width="13.203448275862069" height="13.203448275862069"></rect><rect shape-rendering="optimizeSpeed" fill="#000" x="23.10344827586207" y="114.82758620689656" width="13.203448275862069" height="13.203448275862069"></rect><rect shape-rendering="optimizeSpeed" fill="#000" x="75.51724137931035" y="114.82758620689656" width="13.203448275862069" height="13.203448275862069"></rect><rect shape-rendering="optimizeSpeed" fill="#000" x="88.62068965517241" y="114.82758620689656" width="13.203448275862069" height="13.203448275862069"></rect><rect shape-rendering="optimizeSpeed" fill="#000" x="101.72413793103449" y="114.82758620689656" width="13.203448275862069" height="13.203448275862069"></rect><rect shape-rendering="optimizeSpeed" fill="#000" x="127.93103448275862" y="114.82758620689656" width="13.203448275862069" height="13.203448275862069"></rect><rect shape-rendering="optimizeSpeed" fill="#000" x="141.0344827586207" y="114.82758620689656" width="13.203448275862069" height="13.203448275862069"></rect><rect shape-rendering="optimizeSpeed" fill="#000" x="167.24137931034483" y="114.82758620689656" width="13.203448275862069" height="13.203448275862069"></rect><rect shape-rendering="optimizeSpeed" fill="#000" x="180.3448275862069" y="114.82758620689656" width="13.203448275862069" height="13.203448275862069"></rect><rect shape-rendering="optimizeSpeed" fill="#000" x="193.44827586206898" y="114.82758620689656" width="13.203448275862069" height="13.203448275862069"></rect><rect shape-rendering="optimizeSpeed" fill="#000" x="206.55172413793105" y="114.82758620689656" width="13.203448275862069" height="13.203448275862069"></rect><rect shape-rendering="optimizeSpeed" fill="#000" x="232.75862068965517" y="114.82758620689656" width="13.203448275862069" height="13.203448275862069"></rect><rect shape-rendering="optimizeSpeed" fill="#000" x="324.48275862068965" y="114.82758620689656" width="13.203448275862069" height="13.203448275862069"></rect><rect shape-rendering="optimizeSpeed" fill="#000" x="337.58620689655174" y="114.82758620689656" width="13.203448275862069" height="13.203448275862069"></rect><rect shape-rendering="optimizeSpeed" fill="#000" x="49.310344827586206" y="127.93103448275862" width="13.203448275862069" height="13.203448275862069"></rect><rect shape-rendering="optimizeSpeed" fill="#000" x="62.41379310344828" y="127.93103448275862" width="13.203448275862069" height="13.203448275862069"></rect><rect shape-rendering="optimizeSpeed" fill="#000" x="141.0344827586207" y="127.93103448275862" width="13.203448275862069" height="13.203448275862069"></rect><rect shape-rendering="optimizeSpeed" fill="#000" x="193.44827586206898" y="127.93103448275862" width="13.203448275862069" height="13.203448275862069"></rect><rect shape-rendering="optimizeSpeed" fill="#000" x="258.9655172413793" y="127.93103448275862" width="13.203448275862069" height="13.203448275862069"></rect><rect shape-rendering="optimizeSpeed" fill="#000" x="285.17241379310343" y="127.93103448275862" width="13.203448275862069" height="13.203448275862069"></rect><rect shape-rendering="optimizeSpeed" fill="#000" x="311.3793103448276" y="127.93103448275862" width="13.203448275862069" height="13.203448275862069"></rect><rect shape-rendering="optimizeSpeed" fill="#000" x="324.48275862068965" y="127.93103448275862" width="13.203448275862069" height="13.203448275862069"></rect><rect shape-rendering="optimizeSpeed" fill="#000" x="350.6896551724138" y="127.93103448275862" width="13.203448275862069" height="13.203448275862069"></rect><rect shape-rendering="optimizeSpeed" fill="#000" x="363.7931034482759" y="127.93103448275862" width="13.203448275862069" height="13.203448275862069"></rect><rect shape-rendering="optimizeSpeed" fill="#000" x="23.10344827586207" y="141.0344827586207" width="13.203448275862069" height="13.203448275862069"></rect><rect shape-rendering="optimizeSpeed" fill="#000" x="36.20689655172414" y="141.0344827586207" width="13.203448275862069" height="13.203448275862069"></rect><rect shape-rendering="optimizeSpeed" fill="#000" x="49.310344827586206" y="141.0344827586207" width="13.203448275862069" height="13.203448275862069"></rect><rect shape-rendering="optimizeSpeed" fill="#000" x="62.41379310344828" y="141.0344827586207" width="13.203448275862069" height="13.203448275862069"></rect><rect shape-rendering="optimizeSpeed" fill="#000" x="88.62068965517241" y="141.0344827586207" width="13.203448275862069" height="13.203448275862069"></rect><rect shape-rendering="optimizeSpeed" fill="#000" x="114.82758620689656" y="141.0344827586207" width="13.203448275862069" height="13.203448275862069"></rect><rect shape-rendering="optimizeSpeed" fill="#000" x="127.93103448275862" y="141.0344827586207" width="13.203448275862069" height="13.203448275862069"></rect><rect shape-rendering="optimizeSpeed" fill="#000" x="154.13793103448276" y="141.0344827586207" width="13.203448275862069" height="13.203448275862069"></rect><rect shape-rendering="optimizeSpeed" fill="#000" x="167.24137931034483" y="141.0344827586207" width="13.203448275862069" height="13.203448275862069"></rect><rect shape-rendering="optimizeSpeed" fill="#000" x="180.3448275862069" y="141.0344827586207" width="13.203448275862069" height="13.203448275862069"></rect><rect shape-rendering="optimizeSpeed" fill="#000" x="206.55172413793105" y="141.0344827586207" width="13.203448275862069" height="13.203448275862069"></rect><rect shape-rendering="optimizeSpeed" fill="#000" x="219.6551724137931" y="141.0344827586207" width="13.203448275862069" height="13.203448275862069"></rect><rect shape-rendering="optimizeSpeed" fill="#000" x="10" y="154.13793103448276" width="13.203448275862069" height="13.203448275862069"></rect><rect shape-rendering="optimizeSpeed" fill="#000" x="23.10344827586207" y="154.13793103448276" width="13.203448275862069" height="13.203448275862069"></rect><rect shape-rendering="optimizeSpeed" fill="#000" x="101.72413793103449" y="154.13793103448276" width="13.203448275862069" height="13.203448275862069"></rect><rect shape-rendering="optimizeSpeed" fill="#000" x="114.82758620689656" y="154.13793103448276" width="13.203448275862069" height="13.203448275862069"></rect><rect shape-rendering="optimizeSpeed" fill="#000" x="141.0344827586207" y="154.13793103448276" width="13.203448275862069" height="13.203448275862069"></rect><rect shape-rendering="optimizeSpeed" fill="#000" x="154.13793103448276" y="154.13793103448276" width="13.203448275862069" height="13.203448275862069"></rect><rect shape-rendering="optimizeSpeed" fill="#000" x="219.6551724137931" y="154.13793103448276" width="13.203448275862069" height="13.203448275862069"></rect><rect shape-rendering="optimizeSpeed" fill="#000" x="258.9655172413793" y="154.13793103448276" width="13.203448275862069" height="13.203448275862069"></rect><rect shape-rendering="optimizeSpeed" fill="#000" x="272.0689655172414" y="154.13793103448276" width="13.203448275862069" height="13.203448275862069"></rect><rect shape-rendering="optimizeSpeed" fill="#000" x="285.17241379310343" y="154.13793103448276" width="13.203448275862069" height="13.203448275862069"></rect><rect shape-rendering="optimizeSpeed" fill="#000" x="298.2758620689655" y="154.13793103448276" width="13.203448275862069" height="13.203448275862069"></rect><rect shape-rendering="optimizeSpeed" fill="#000" x="311.3793103448276" y="154.13793103448276" width="13.203448275862069" height="13.203448275862069"></rect><rect shape-rendering="optimizeSpeed" fill="#000" x="337.58620689655174" y="154.13793103448276" width="13.203448275862069" height="13.203448275862069"></rect><rect shape-rendering="optimizeSpeed" fill="#000" x="23.10344827586207" y="167.24137931034483" width="13.203448275862069" height="13.203448275862069"></rect><rect shape-rendering="optimizeSpeed" fill="#000" x="49.310344827586206" y="167.24137931034483" width="13.203448275862069" height="13.203448275862069"></rect><rect shape-rendering="optimizeSpeed" fill="#000" x="88.62068965517241" y="167.24137931034483" width="13.203448275862069" height="13.203448275862069"></rect><rect shape-rendering="optimizeSpeed" fill="#000" x="127.93103448275862" y="167.24137931034483" width="13.203448275862069" height="13.203448275862069"></rect><rect shape-rendering="optimizeSpeed" fill="#000" x="141.0344827586207" y="167.24137931034483" width="13.203448275862069" height="13.203448275862069"></rect><rect shape-rendering="optimizeSpeed" fill="#000" x="219.6551724137931" y="167.24137931034483" width="13.203448275862069" height="13.203448275862069"></rect><rect shape-rendering="optimizeSpeed" fill="#000" x="272.0689655172414" y="167.24137931034483" width="13.203448275862069" height="13.203448275862069"></rect><rect shape-rendering="optimizeSpeed" fill="#000" x="298.2758620689655" y="167.24137931034483" width="13.203448275862069" height="13.203448275862069"></rect><rect shape-rendering="optimizeSpeed" fill="#000" x="311.3793103448276" y="167.24137931034483" width="13.203448275862069" height="13.203448275862069"></rect><rect shape-rendering="optimizeSpeed" fill="#000" x="376.89655172413796" y="167.24137931034483" width="13.203448275862069" height="13.203448275862069"></rect><rect shape-rendering="optimizeSpeed" fill="#000" x="10" y="180.3448275862069" width="13.203448275862069" height="13.203448275862069"></rect><rect shape-rendering="optimizeSpeed" fill="#000" x="62.41379310344828" y="180.3448275862069" width="13.203448275862069" height="13.203448275862069"></rect><rect shape-rendering="optimizeSpeed" fill="#000" x="75.51724137931035" y="180.3448275862069" width="13.203448275862069" height="13.203448275862069"></rect><rect shape-rendering="optimizeSpeed" fill="#000" x="141.0344827586207" y="180.3448275862069" width="13.203448275862069" height="13.203448275862069"></rect><rect shape-rendering="optimizeSpeed" fill="#000" x="167.24137931034483" y="180.3448275862069" width="13.203448275862069" height="13.203448275862069"></rect><rect shape-rendering="optimizeSpeed" fill="#000" x="180.3448275862069" y="180.3448275862069" width="13.203448275862069" height="13.203448275862069"></rect><rect shape-rendering="optimizeSpeed" fill="#000" x="206.55172413793105" y="180.3448275862069" width="13.203448275862069" height="13.203448275862069"></rect><rect shape-rendering="optimizeSpeed" fill="#000" x="245.86206896551724" y="180.3448275862069" width="13.203448275862069" height="13.203448275862069"></rect><rect shape-rendering="optimizeSpeed" fill="#000" x="258.9655172413793" y="180.3448275862069" width="13.203448275862069" height="13.203448275862069"></rect><rect shape-rendering="optimizeSpeed" fill="#000" x="298.2758620689655" y="180.3448275862069" width="13.203448275862069" height="13.203448275862069"></rect><rect shape-rendering="optimizeSpeed" fill="#000" x="311.3793103448276" y="180.3448275862069" width="13.203448275862069" height="13.203448275862069"></rect><rect shape-rendering="optimizeSpeed" fill="#000" x="324.48275862068965" y="180.3448275862069" width="13.203448275862069" height="13.203448275862069"></rect><rect shape-rendering="optimizeSpeed" fill="#000" x="363.7931034482759" y="180.3448275862069" width="13.203448275862069" height="13.203448275862069"></rect><rect shape-rendering="optimizeSpeed" fill="#000" x="376.89655172413796" y="180.3448275862069" width="13.203448275862069" height="13.203448275862069"></rect><rect shape-rendering="optimizeSpeed" fill="#000" x="10" y="193.44827586206898" width="13.203448275862069" height="13.203448275862069"></rect><rect shape-rendering="optimizeSpeed" fill="#000" x="23.10344827586207" y="193.44827586206898" width="13.203448275862069" height="13.203448275862069"></rect><rect shape-rendering="optimizeSpeed" fill="#000" x="62.41379310344828" y="193.44827586206898" width="13.203448275862069" height="13.203448275862069"></rect><rect shape-rendering="optimizeSpeed" fill="#000" x="75.51724137931035" y="193.44827586206898" width="13.203448275862069" height="13.203448275862069"></rect><rect shape-rendering="optimizeSpeed" fill="#000" x="88.62068965517241" y="193.44827586206898" width="13.203448275862069" height="13.203448275862069"></rect><rect shape-rendering="optimizeSpeed" fill="#000" x="114.82758620689656" y="193.44827586206898" width="13.203448275862069" height="13.203448275862069"></rect><rect shape-rendering="optimizeSpeed" fill="#000" x="127.93103448275862" y="193.44827586206898" width="13.203448275862069" height="13.203448275862069"></rect><rect shape-rendering="optimizeSpeed" fill="#000" x="206.55172413793105" y="193.44827586206898" width="13.203448275862069" height="13.203448275862069"></rect><rect shape-rendering="optimizeSpeed" fill="#000" x="219.6551724137931" y="193.44827586206898" width="13.203448275862069" height="13.203448275862069"></rect><rect shape-rendering="optimizeSpeed" fill="#000" x="232.75862068965517" y="193.44827586206898" width="13.203448275862069" height="13.203448275862069"></rect><rect shape-rendering="optimizeSpeed" fill="#000" x="245.86206896551724" y="193.44827586206898" width="13.203448275862069" height="13.203448275862069"></rect><rect shape-rendering="optimizeSpeed" fill="#000" x="272.0689655172414" y="193.44827586206898" width="13.203448275862069" height="13.203448275862069"></rect><rect shape-rendering="optimizeSpeed" fill="#000" x="285.17241379310343" y="193.44827586206898" width="13.203448275862069" height="13.203448275862069"></rect><rect shape-rendering="optimizeSpeed" fill="#000" x="311.3793103448276" y="193.44827586206898" width="13.203448275862069" height="13.203448275862069"></rect><rect shape-rendering="optimizeSpeed" fill="#000" x="324.48275862068965" y="193.44827586206898" width="13.203448275862069" height="13.203448275862069"></rect><rect shape-rendering="optimizeSpeed" fill="#000" x="337.58620689655174" y="193.44827586206898" width="13.203448275862069" height="13.203448275862069"></rect><rect shape-rendering="optimizeSpeed" fill="#000" x="350.6896551724138" y="193.44827586206898" width="13.203448275862069" height="13.203448275862069"></rect><rect shape-rendering="optimizeSpeed" fill="#000" x="23.10344827586207" y="206.55172413793105" width="13.203448275862069" height="13.203448275862069"></rect><rect shape-rendering="optimizeSpeed" fill="#000" x="49.310344827586206" y="206.55172413793105" width="13.203448275862069" height="13.203448275862069"></rect><rect shape-rendering="optimizeSpeed" fill="#000" x="62.41379310344828" y="206.55172413793105" width="13.203448275862069" height="13.203448275862069"></rect><rect shape-rendering="optimizeSpeed" fill="#000" x="114.82758620689656" y="206.55172413793105" width="13.203448275862069" height="13.203448275862069"></rect><rect shape-rendering="optimizeSpeed" fill="#000" x="167.24137931034483" y="206.55172413793105" width="13.203448275862069" height="13.203448275862069"></rect><rect shape-rendering="optimizeSpeed" fill="#000" x="206.55172413793105" y="206.55172413793105" width="13.203448275862069" height="13.203448275862069"></rect><rect shape-rendering="optimizeSpeed" fill="#000" x="219.6551724137931" y="206.55172413793105" width="13.203448275862069" height="13.203448275862069"></rect><rect shape-rendering="optimizeSpeed" fill="#000" x="245.86206896551724" y="206.55172413793105" width="13.203448275862069" height="13.203448275862069"></rect><rect shape-rendering="optimizeSpeed" fill="#000" x="272.0689655172414" y="206.55172413793105" width="13.203448275862069" height="13.203448275862069"></rect><rect shape-rendering="optimizeSpeed" fill="#000" x="285.17241379310343" y="206.55172413793105" width="13.203448275862069" height="13.203448275862069"></rect><rect shape-rendering="optimizeSpeed" fill="#000" x="298.2758620689655" y="206.55172413793105" width="13.203448275862069" height="13.203448275862069"></rect><rect shape-rendering="optimizeSpeed" fill="#000" x="324.48275862068965" y="206.55172413793105" width="13.203448275862069" height="13.203448275862069"></rect><rect shape-rendering="optimizeSpeed" fill="#000" x="350.6896551724138" y="206.55172413793105" width="13.203448275862069" height="13.203448275862069"></rect><rect shape-rendering="optimizeSpeed" fill="#000" x="376.89655172413796" y="206.55172413793105" width="13.203448275862069" height="13.203448275862069"></rect><rect shape-rendering="optimizeSpeed" fill="#000" x="36.20689655172414" y="219.6551724137931" width="13.203448275862069" height="13.203448275862069"></rect><rect shape-rendering="optimizeSpeed" fill="#000" x="75.51724137931035" y="219.6551724137931" width="13.203448275862069" height="13.203448275862069"></rect><rect shape-rendering="optimizeSpeed" fill="#000" x="88.62068965517241" y="219.6551724137931" width="13.203448275862069" height="13.203448275862069"></rect><rect shape-rendering="optimizeSpeed" fill="#000" x="101.72413793103449" y="219.6551724137931" width="13.203448275862069" height="13.203448275862069"></rect><rect shape-rendering="optimizeSpeed" fill="#000" x="114.82758620689656" y="219.6551724137931" width="13.203448275862069" height="13.203448275862069"></rect><rect shape-rendering="optimizeSpeed" fill="#000" x="127.93103448275862" y="219.6551724137931" width="13.203448275862069" height="13.203448275862069"></rect><rect shape-rendering="optimizeSpeed" fill="#000" x="141.0344827586207" y="219.6551724137931" width="13.203448275862069" height="13.203448275862069"></rect><rect shape-rendering="optimizeSpeed" fill="#000" x="167.24137931034483" y="219.6551724137931" width="13.203448275862069" height="13.203448275862069"></rect><rect shape-rendering="optimizeSpeed" fill="#000" x="180.3448275862069" y="219.6551724137931" width="13.203448275862069" height="13.203448275862069"></rect><rect shape-rendering="optimizeSpeed" fill="#000" x="193.44827586206898" y="219.6551724137931" width="13.203448275862069" height="13.203448275862069"></rect><rect shape-rendering="optimizeSpeed" fill="#000" x="206.55172413793105" y="219.6551724137931" width="13.203448275862069" height="13.203448275862069"></rect><rect shape-rendering="optimizeSpeed" fill="#000" x="219.6551724137931" y="219.6551724137931" width="13.203448275862069" height="13.203448275862069"></rect><rect shape-rendering="optimizeSpeed" fill="#000" x="232.75862068965517" y="219.6551724137931" width="13.203448275862069" height="13.203448275862069"></rect><rect shape-rendering="optimizeSpeed" fill="#000" x="245.86206896551724" y="219.6551724137931" width="13.203448275862069" height="13.203448275862069"></rect><rect shape-rendering="optimizeSpeed" fill="#000" x="272.0689655172414" y="219.6551724137931" width="13.203448275862069" height="13.203448275862069"></rect><rect shape-rendering="optimizeSpeed" fill="#000" x="337.58620689655174" y="219.6551724137931" width="13.203448275862069" height="13.203448275862069"></rect><rect shape-rendering="optimizeSpeed" fill="#000" x="350.6896551724138" y="219.6551724137931" width="13.203448275862069" height="13.203448275862069"></rect><rect shape-rendering="optimizeSpeed" fill="#000" x="10" y="232.75862068965517" width="13.203448275862069" height="13.203448275862069"></rect><rect shape-rendering="optimizeSpeed" fill="#000" x="75.51724137931035" y="232.75862068965517" width="13.203448275862069" height="13.203448275862069"></rect><rect shape-rendering="optimizeSpeed" fill="#000" x="101.72413793103449" y="232.75862068965517" width="13.203448275862069" height="13.203448275862069"></rect><rect shape-rendering="optimizeSpeed" fill="#000" x="114.82758620689656" y="232.75862068965517" width="13.203448275862069" height="13.203448275862069"></rect><rect shape-rendering="optimizeSpeed" fill="#000" x="141.0344827586207" y="232.75862068965517" width="13.203448275862069" height="13.203448275862069"></rect><rect shape-rendering="optimizeSpeed" fill="#000" x="193.44827586206898" y="232.75862068965517" width="13.203448275862069" height="13.203448275862069"></rect><rect shape-rendering="optimizeSpeed" fill="#000" x="206.55172413793105" y="232.75862068965517" width="13.203448275862069" height="13.203448275862069"></rect><rect shape-rendering="optimizeSpeed" fill="#000" x="219.6551724137931" y="232.75862068965517" width="13.203448275862069" height="13.203448275862069"></rect><rect shape-rendering="optimizeSpeed" fill="#000" x="232.75862068965517" y="232.75862068965517" width="13.203448275862069" height="13.203448275862069"></rect><rect shape-rendering="optimizeSpeed" fill="#000" x="245.86206896551724" y="232.75862068965517" width="13.203448275862069" height="13.203448275862069"></rect><rect shape-rendering="optimizeSpeed" fill="#000" x="258.9655172413793" y="232.75862068965517" width="13.203448275862069" height="13.203448275862069"></rect><rect shape-rendering="optimizeSpeed" fill="#000" x="298.2758620689655" y="232.75862068965517" width="13.203448275862069" height="13.203448275862069"></rect><rect shape-rendering="optimizeSpeed" fill="#000" x="311.3793103448276" y="232.75862068965517" width="13.203448275862069" height="13.203448275862069"></rect><rect shape-rendering="optimizeSpeed" fill="#000" x="324.48275862068965" y="232.75862068965517" width="13.203448275862069" height="13.203448275862069"></rect><rect shape-rendering="optimizeSpeed" fill="#000" x="350.6896551724138" y="232.75862068965517" width="13.203448275862069" height="13.203448275862069"></rect><rect shape-rendering="optimizeSpeed" fill="#000" x="363.7931034482759" y="232.75862068965517" width="13.203448275862069" height="13.203448275862069"></rect><rect shape-rendering="optimizeSpeed" fill="#000" x="376.89655172413796" y="232.75862068965517" width="13.203448275862069" height="13.203448275862069"></rect><rect shape-rendering="optimizeSpeed" fill="#000" x="10" y="245.86206896551724" width="13.203448275862069" height="13.203448275862069"></rect><rect shape-rendering="optimizeSpeed" fill="#000" x="23.10344827586207" y="245.86206896551724" width="13.203448275862069" height="13.203448275862069"></rect><rect shape-rendering="optimizeSpeed" fill="#000" x="49.310344827586206" y="245.86206896551724" width="13.203448275862069" height="13.203448275862069"></rect><rect shape-rendering="optimizeSpeed" fill="#000" x="62.41379310344828" y="245.86206896551724" width="13.203448275862069" height="13.203448275862069"></rect><rect shape-rendering="optimizeSpeed" fill="#000" x="88.62068965517241" y="245.86206896551724" width="13.203448275862069" height="13.203448275862069"></rect><rect shape-rendering="optimizeSpeed" fill="#000" x="127.93103448275862" y="245.86206896551724" width="13.203448275862069" height="13.203448275862069"></rect><rect shape-rendering="optimizeSpeed" fill="#000" x="167.24137931034483" y="245.86206896551724" width="13.203448275862069" height="13.203448275862069"></rect><rect shape-rendering="optimizeSpeed" fill="#000" x="180.3448275862069" y="245.86206896551724" width="13.203448275862069" height="13.203448275862069"></rect><rect shape-rendering="optimizeSpeed" fill="#000" x="206.55172413793105" y="245.86206896551724" width="13.203448275862069" height="13.203448275862069"></rect><rect shape-rendering="optimizeSpeed" fill="#000" x="258.9655172413793" y="245.86206896551724" width="13.203448275862069" height="13.203448275862069"></rect><rect shape-rendering="optimizeSpeed" fill="#000" x="311.3793103448276" y="245.86206896551724" width="13.203448275862069" height="13.203448275862069"></rect><rect shape-rendering="optimizeSpeed" fill="#000" x="324.48275862068965" y="245.86206896551724" width="13.203448275862069" height="13.203448275862069"></rect><rect shape-rendering="optimizeSpeed" fill="#000" x="337.58620689655174" y="245.86206896551724" width="13.203448275862069" height="13.203448275862069"></rect><rect shape-rendering="optimizeSpeed" fill="#000" x="376.89655172413796" y="245.86206896551724" width="13.203448275862069" height="13.203448275862069"></rect><rect shape-rendering="optimizeSpeed" fill="#000" x="10" y="258.9655172413793" width="13.203448275862069" height="13.203448275862069"></rect><rect shape-rendering="optimizeSpeed" fill="#000" x="62.41379310344828" y="258.9655172413793" width="13.203448275862069" height="13.203448275862069"></rect><rect shape-rendering="optimizeSpeed" fill="#000" x="75.51724137931035" y="258.9655172413793" width="13.203448275862069" height="13.203448275862069"></rect><rect shape-rendering="optimizeSpeed" fill="#000" x="114.82758620689656" y="258.9655172413793" width="13.203448275862069" height="13.203448275862069"></rect><rect shape-rendering="optimizeSpeed" fill="#000" x="141.0344827586207" y="258.9655172413793" width="13.203448275862069" height="13.203448275862069"></rect><rect shape-rendering="optimizeSpeed" fill="#000" x="154.13793103448276" y="258.9655172413793" width="13.203448275862069" height="13.203448275862069"></rect><rect shape-rendering="optimizeSpeed" fill="#000" x="245.86206896551724" y="258.9655172413793" width="13.203448275862069" height="13.203448275862069"></rect><rect shape-rendering="optimizeSpeed" fill="#000" x="258.9655172413793" y="258.9655172413793" width="13.203448275862069" height="13.203448275862069"></rect><rect shape-rendering="optimizeSpeed" fill="#000" x="272.0689655172414" y="258.9655172413793" width="13.203448275862069" height="13.203448275862069"></rect><rect shape-rendering="optimizeSpeed" fill="#000" x="298.2758620689655" y="258.9655172413793" width="13.203448275862069" height="13.203448275862069"></rect><rect shape-rendering="optimizeSpeed" fill="#000" x="10" y="272.0689655172414" width="13.203448275862069" height="13.203448275862069"></rect><rect shape-rendering="optimizeSpeed" fill="#000" x="75.51724137931035" y="272.0689655172414" width="13.203448275862069" height="13.203448275862069"></rect><rect shape-rendering="optimizeSpeed" fill="#000" x="88.62068965517241" y="272.0689655172414" width="13.203448275862069" height="13.203448275862069"></rect><rect shape-rendering="optimizeSpeed" fill="#000" x="114.82758620689656" y="272.0689655172414" width="13.203448275862069" height="13.203448275862069"></rect><rect shape-rendering="optimizeSpeed" fill="#000" x="127.93103448275862" y="272.0689655172414" width="13.203448275862069" height="13.203448275862069"></rect><rect shape-rendering="optimizeSpeed" fill="#000" x="141.0344827586207" y="272.0689655172414" width="13.203448275862069" height="13.203448275862069"></rect><rect shape-rendering="optimizeSpeed" fill="#000" x="154.13793103448276" y="272.0689655172414" width="13.203448275862069" height="13.203448275862069"></rect><rect shape-rendering="optimizeSpeed" fill="#000" x="167.24137931034483" y="272.0689655172414" width="13.203448275862069" height="13.203448275862069"></rect><rect shape-rendering="optimizeSpeed" fill="#000" x="180.3448275862069" y="272.0689655172414" width="13.203448275862069" height="13.203448275862069"></rect><rect shape-rendering="optimizeSpeed" fill="#000" x="193.44827586206898" y="272.0689655172414" width="13.203448275862069" height="13.203448275862069"></rect><rect shape-rendering="optimizeSpeed" fill="#000" x="232.75862068965517" y="272.0689655172414" width="13.203448275862069" height="13.203448275862069"></rect><rect shape-rendering="optimizeSpeed" fill="#000" x="272.0689655172414" y="272.0689655172414" width="13.203448275862069" height="13.203448275862069"></rect><rect shape-rendering="optimizeSpeed" fill="#000" x="285.17241379310343" y="272.0689655172414" width="13.203448275862069" height="13.203448275862069"></rect><rect shape-rendering="optimizeSpeed" fill="#000" x="298.2758620689655" y="272.0689655172414" width="13.203448275862069" height="13.203448275862069"></rect><rect shape-rendering="optimizeSpeed" fill="#000" x="311.3793103448276" y="272.0689655172414" width="13.203448275862069" height="13.203448275862069"></rect><rect shape-rendering="optimizeSpeed" fill="#000" x="324.48275862068965" y="272.0689655172414" width="13.203448275862069" height="13.203448275862069"></rect><rect shape-rendering="optimizeSpeed" fill="#000" x="350.6896551724138" y="272.0689655172414" width="13.203448275862069" height="13.203448275862069"></rect><rect shape-rendering="optimizeSpeed" fill="#000" x="363.7931034482759" y="272.0689655172414" width="13.203448275862069" height="13.203448275862069"></rect><rect shape-rendering="optimizeSpeed" fill="#000" x="376.89655172413796" y="272.0689655172414" width="13.203448275862069" height="13.203448275862069"></rect><rect shape-rendering="optimizeSpeed" fill="#000" x="114.82758620689656" y="285.17241379310343" width="13.203448275862069" height="13.203448275862069"></rect><rect shape-rendering="optimizeSpeed" fill="#000" x="127.93103448275862" y="285.17241379310343" width="13.203448275862069" height="13.203448275862069"></rect><rect shape-rendering="optimizeSpeed" fill="#000" x="141.0344827586207" y="285.17241379310343" width="13.203448275862069" height="13.203448275862069"></rect><rect shape-rendering="optimizeSpeed" fill="#000" x="167.24137931034483" y="285.17241379310343" width="13.203448275862069" height="13.203448275862069"></rect><rect shape-rendering="optimizeSpeed" fill="#000" x="180.3448275862069" y="285.17241379310343" width="13.203448275862069" height="13.203448275862069"></rect><rect shape-rendering="optimizeSpeed" fill="#000" x="193.44827586206898" y="285.17241379310343" width="13.203448275862069" height="13.203448275862069"></rect><rect shape-rendering="optimizeSpeed" fill="#000" x="206.55172413793105" y="285.17241379310343" width="13.203448275862069" height="13.203448275862069"></rect><rect shape-rendering="optimizeSpeed" fill="#000" x="232.75862068965517" y="285.17241379310343" width="13.203448275862069" height="13.203448275862069"></rect><rect shape-rendering="optimizeSpeed" fill="#000" x="245.86206896551724" y="285.17241379310343" width="13.203448275862069" height="13.203448275862069"></rect><rect shape-rendering="optimizeSpeed" fill="#000" x="258.9655172413793" y="285.17241379310343" width="13.203448275862069" height="13.203448275862069"></rect><rect shape-rendering="optimizeSpeed" fill="#000" x="272.0689655172414" y="285.17241379310343" width="13.203448275862069" height="13.203448275862069"></rect><rect shape-rendering="optimizeSpeed" fill="#000" x="324.48275862068965" y="285.17241379310343" width="13.203448275862069" height="13.203448275862069"></rect><rect shape-rendering="optimizeSpeed" fill="#000" x="337.58620689655174" y="285.17241379310343" width="13.203448275862069" height="13.203448275862069"></rect><rect shape-rendering="optimizeSpeed" fill="#000" x="10" y="298.2758620689655" width="13.203448275862069" height="13.203448275862069"></rect><rect shape-rendering="optimizeSpeed" fill="#000" x="23.10344827586207" y="298.2758620689655" width="13.203448275862069" height="13.203448275862069"></rect><rect shape-rendering="optimizeSpeed" fill="#000" x="36.20689655172414" y="298.2758620689655" width="13.203448275862069" height="13.203448275862069"></rect><rect shape-rendering="optimizeSpeed" fill="#000" x="49.310344827586206" y="298.2758620689655" width="13.203448275862069" height="13.203448275862069"></rect><rect shape-rendering="optimizeSpeed" fill="#000" x="62.41379310344828" y="298.2758620689655" width="13.203448275862069" height="13.203448275862069"></rect><rect shape-rendering="optimizeSpeed" fill="#000" x="75.51724137931035" y="298.2758620689655" width="13.203448275862069" height="13.203448275862069"></rect><rect shape-rendering="optimizeSpeed" fill="#000" x="88.62068965517241" y="298.2758620689655" width="13.203448275862069" height="13.203448275862069"></rect><rect shape-rendering="optimizeSpeed" fill="#000" x="114.82758620689656" y="298.2758620689655" width="13.203448275862069" height="13.203448275862069"></rect><rect shape-rendering="optimizeSpeed" fill="#000" x="127.93103448275862" y="298.2758620689655" width="13.203448275862069" height="13.203448275862069"></rect><rect shape-rendering="optimizeSpeed" fill="#000" x="206.55172413793105" y="298.2758620689655" width="13.203448275862069" height="13.203448275862069"></rect><rect shape-rendering="optimizeSpeed" fill="#000" x="245.86206896551724" y="298.2758620689655" width="13.203448275862069" height="13.203448275862069"></rect><rect shape-rendering="optimizeSpeed" fill="#000" x="258.9655172413793" y="298.2758620689655" width="13.203448275862069" height="13.203448275862069"></rect><rect shape-rendering="optimizeSpeed" fill="#000" x="272.0689655172414" y="298.2758620689655" width="13.203448275862069" height="13.203448275862069"></rect><rect shape-rendering="optimizeSpeed" fill="#000" x="298.2758620689655" y="298.2758620689655" width="13.203448275862069" height="13.203448275862069"></rect><rect shape-rendering="optimizeSpeed" fill="#000" x="324.48275862068965" y="298.2758620689655" width="13.203448275862069" height="13.203448275862069"></rect><rect shape-rendering="optimizeSpeed" fill="#000" x="337.58620689655174" y="298.2758620689655" width="13.203448275862069" height="13.203448275862069"></rect><rect shape-rendering="optimizeSpeed" fill="#000" x="350.6896551724138" y="298.2758620689655" width="13.203448275862069" height="13.203448275862069"></rect><rect shape-rendering="optimizeSpeed" fill="#000" x="10" y="311.3793103448276" width="13.203448275862069" height="13.203448275862069"></rect><rect shape-rendering="optimizeSpeed" fill="#000" x="88.62068965517241" y="311.3793103448276" width="13.203448275862069" height="13.203448275862069"></rect><rect shape-rendering="optimizeSpeed" fill="#000" x="114.82758620689656" y="311.3793103448276" width="13.203448275862069" height="13.203448275862069"></rect><rect shape-rendering="optimizeSpeed" fill="#000" x="127.93103448275862" y="311.3793103448276" width="13.203448275862069" height="13.203448275862069"></rect><rect shape-rendering="optimizeSpeed" fill="#000" x="154.13793103448276" y="311.3793103448276" width="13.203448275862069" height="13.203448275862069"></rect><rect shape-rendering="optimizeSpeed" fill="#000" x="193.44827586206898" y="311.3793103448276" width="13.203448275862069" height="13.203448275862069"></rect><rect shape-rendering="optimizeSpeed" fill="#000" x="206.55172413793105" y="311.3793103448276" width="13.203448275862069" height="13.203448275862069"></rect><rect shape-rendering="optimizeSpeed" fill="#000" x="219.6551724137931" y="311.3793103448276" width="13.203448275862069" height="13.203448275862069"></rect><rect shape-rendering="optimizeSpeed" fill="#000" x="272.0689655172414" y="311.3793103448276" width="13.203448275862069" height="13.203448275862069"></rect><rect shape-rendering="optimizeSpeed" fill="#000" x="324.48275862068965" y="311.3793103448276" width="13.203448275862069" height="13.203448275862069"></rect><rect shape-rendering="optimizeSpeed" fill="#000" x="363.7931034482759" y="311.3793103448276" width="13.203448275862069" height="13.203448275862069"></rect><rect shape-rendering="optimizeSpeed" fill="#000" x="10" y="324.48275862068965" width="13.203448275862069" height="13.203448275862069"></rect><rect shape-rendering="optimizeSpeed" fill="#000" x="36.20689655172414" y="324.48275862068965" width="13.203448275862069" height="13.203448275862069"></rect><rect shape-rendering="optimizeSpeed" fill="#000" x="49.310344827586206" y="324.48275862068965" width="13.203448275862069" height="13.203448275862069"></rect><rect shape-rendering="optimizeSpeed" fill="#000" x="62.41379310344828" y="324.48275862068965" width="13.203448275862069" height="13.203448275862069"></rect><rect shape-rendering="optimizeSpeed" fill="#000" x="88.62068965517241" y="324.48275862068965" width="13.203448275862069" height="13.203448275862069"></rect><rect shape-rendering="optimizeSpeed" fill="#000" x="127.93103448275862" y="324.48275862068965" width="13.203448275862069" height="13.203448275862069"></rect><rect shape-rendering="optimizeSpeed" fill="#000" x="167.24137931034483" y="324.48275862068965" width="13.203448275862069" height="13.203448275862069"></rect><rect shape-rendering="optimizeSpeed" fill="#000" x="206.55172413793105" y="324.48275862068965" width="13.203448275862069" height="13.203448275862069"></rect><rect shape-rendering="optimizeSpeed" fill="#000" x="258.9655172413793" y="324.48275862068965" width="13.203448275862069" height="13.203448275862069"></rect><rect shape-rendering="optimizeSpeed" fill="#000" x="272.0689655172414" y="324.48275862068965" width="13.203448275862069" height="13.203448275862069"></rect><rect shape-rendering="optimizeSpeed" fill="#000" x="285.17241379310343" y="324.48275862068965" width="13.203448275862069" height="13.203448275862069"></rect><rect shape-rendering="optimizeSpeed" fill="#000" x="298.2758620689655" y="324.48275862068965" width="13.203448275862069" height="13.203448275862069"></rect><rect shape-rendering="optimizeSpeed" fill="#000" x="311.3793103448276" y="324.48275862068965" width="13.203448275862069" height="13.203448275862069"></rect><rect shape-rendering="optimizeSpeed" fill="#000" x="324.48275862068965" y="324.48275862068965" width="13.203448275862069" height="13.203448275862069"></rect><rect shape-rendering="optimizeSpeed" fill="#000" x="337.58620689655174" y="324.48275862068965" width="13.203448275862069" height="13.203448275862069"></rect><rect shape-rendering="optimizeSpeed" fill="#000" x="10" y="337.58620689655174" width="13.203448275862069" height="13.203448275862069"></rect><rect shape-rendering="optimizeSpeed" fill="#000" x="36.20689655172414" y="337.58620689655174" width="13.203448275862069" height="13.203448275862069"></rect><rect shape-rendering="optimizeSpeed" fill="#000" x="49.310344827586206" y="337.58620689655174" width="13.203448275862069" height="13.203448275862069"></rect><rect shape-rendering="optimizeSpeed" fill="#000" x="62.41379310344828" y="337.58620689655174" width="13.203448275862069" height="13.203448275862069"></rect><rect shape-rendering="optimizeSpeed" fill="#000" x="88.62068965517241" y="337.58620689655174" width="13.203448275862069" height="13.203448275862069"></rect><rect shape-rendering="optimizeSpeed" fill="#000" x="127.93103448275862" y="337.58620689655174" width="13.203448275862069" height="13.203448275862069"></rect><rect shape-rendering="optimizeSpeed" fill="#000" x="154.13793103448276" y="337.58620689655174" width="13.203448275862069" height="13.203448275862069"></rect><rect shape-rendering="optimizeSpeed" fill="#000" x="167.24137931034483" y="337.58620689655174" width="13.203448275862069" height="13.203448275862069"></rect><rect shape-rendering="optimizeSpeed" fill="#000" x="180.3448275862069" y="337.58620689655174" width="13.203448275862069" height="13.203448275862069"></rect><rect shape-rendering="optimizeSpeed" fill="#000" x="219.6551724137931" y="337.58620689655174" width="13.203448275862069" height="13.203448275862069"></rect><rect shape-rendering="optimizeSpeed" fill="#000" x="232.75862068965517" y="337.58620689655174" width="13.203448275862069" height="13.203448275862069"></rect><rect shape-rendering="optimizeSpeed" fill="#000" x="245.86206896551724" y="337.58620689655174" width="13.203448275862069" height="13.203448275862069"></rect><rect shape-rendering="optimizeSpeed" fill="#000" x="285.17241379310343" y="337.58620689655174" width="13.203448275862069" height="13.203448275862069"></rect><rect shape-rendering="optimizeSpeed" fill="#000" x="337.58620689655174" y="337.58620689655174" width="13.203448275862069" height="13.203448275862069"></rect><rect shape-rendering="optimizeSpeed" fill="#000" x="350.6896551724138" y="337.58620689655174" width="13.203448275862069" height="13.203448275862069"></rect><rect shape-rendering="optimizeSpeed" fill="#000" x="376.89655172413796" y="337.58620689655174" width="13.203448275862069" height="13.203448275862069"></rect><rect shape-rendering="optimizeSpeed" fill="#000" x="10" y="350.6896551724138" width="13.203448275862069" height="13.203448275862069"></rect><rect shape-rendering="optimizeSpeed" fill="#000" x="36.20689655172414" y="350.6896551724138" width="13.203448275862069" height="13.203448275862069"></rect><rect shape-rendering="optimizeSpeed" fill="#000" x="49.310344827586206" y="350.6896551724138" width="13.203448275862069" height="13.203448275862069"></rect><rect shape-rendering="optimizeSpeed" fill="#000" x="62.41379310344828" y="350.6896551724138" width="13.203448275862069" height="13.203448275862069"></rect><rect shape-rendering="optimizeSpeed" fill="#000" x="88.62068965517241" y="350.6896551724138" width="13.203448275862069" height="13.203448275862069"></rect><rect shape-rendering="optimizeSpeed" fill="#000" x="141.0344827586207" y="350.6896551724138" width="13.203448275862069" height="13.203448275862069"></rect><rect shape-rendering="optimizeSpeed" fill="#000" x="167.24137931034483" y="350.6896551724138" width="13.203448275862069" height="13.203448275862069"></rect><rect shape-rendering="optimizeSpeed" fill="#000" x="180.3448275862069" y="350.6896551724138" width="13.203448275862069" height="13.203448275862069"></rect><rect shape-rendering="optimizeSpeed" fill="#000" x="193.44827586206898" y="350.6896551724138" width="13.203448275862069" height="13.203448275862069"></rect><rect shape-rendering="optimizeSpeed" fill="#000" x="206.55172413793105" y="350.6896551724138" width="13.203448275862069" height="13.203448275862069"></rect><rect shape-rendering="optimizeSpeed" fill="#000" x="219.6551724137931" y="350.6896551724138" width="13.203448275862069" height="13.203448275862069"></rect><rect shape-rendering="optimizeSpeed" fill="#000" x="232.75862068965517" y="350.6896551724138" width="13.203448275862069" height="13.203448275862069"></rect><rect shape-rendering="optimizeSpeed" fill="#000" x="285.17241379310343" y="350.6896551724138" width="13.203448275862069" height="13.203448275862069"></rect><rect shape-rendering="optimizeSpeed" fill="#000" x="298.2758620689655" y="350.6896551724138" width="13.203448275862069" height="13.203448275862069"></rect><rect shape-rendering="optimizeSpeed" fill="#000" x="311.3793103448276" y="350.6896551724138" width="13.203448275862069" height="13.203448275862069"></rect><rect shape-rendering="optimizeSpeed" fill="#000" x="324.48275862068965" y="350.6896551724138" width="13.203448275862069" height="13.203448275862069"></rect><rect shape-rendering="optimizeSpeed" fill="#000" x="337.58620689655174" y="350.6896551724138" width="13.203448275862069" height="13.203448275862069"></rect><rect shape-rendering="optimizeSpeed" fill="#000" x="350.6896551724138" y="350.6896551724138" width="13.203448275862069" height="13.203448275862069"></rect><rect shape-rendering="optimizeSpeed" fill="#000" x="363.7931034482759" y="350.6896551724138" width="13.203448275862069" height="13.203448275862069"></rect><rect shape-rendering="optimizeSpeed" fill="#000" x="10" y="363.7931034482759" width="13.203448275862069" height="13.203448275862069"></rect><rect shape-rendering="optimizeSpeed" fill="#000" x="88.62068965517241" y="363.7931034482759" width="13.203448275862069" height="13.203448275862069"></rect><rect shape-rendering="optimizeSpeed" fill="#000" x="114.82758620689656" y="363.7931034482759" width="13.203448275862069" height="13.203448275862069"></rect><rect shape-rendering="optimizeSpeed" fill="#000" x="141.0344827586207" y="363.7931034482759" width="13.203448275862069" height="13.203448275862069"></rect><rect shape-rendering="optimizeSpeed" fill="#000" x="154.13793103448276" y="363.7931034482759" width="13.203448275862069" height="13.203448275862069"></rect><rect shape-rendering="optimizeSpeed" fill="#000" x="206.55172413793105" y="363.7931034482759" width="13.203448275862069" height="13.203448275862069"></rect><rect shape-rendering="optimizeSpeed" fill="#000" x="258.9655172413793" y="363.7931034482759" width="13.203448275862069" height="13.203448275862069"></rect><rect shape-rendering="optimizeSpeed" fill="#000" x="285.17241379310343" y="363.7931034482759" width="13.203448275862069" height="13.203448275862069"></rect><rect shape-rendering="optimizeSpeed" fill="#000" x="298.2758620689655" y="363.7931034482759" width="13.203448275862069" height="13.203448275862069"></rect><rect shape-rendering="optimizeSpeed" fill="#000" x="337.58620689655174" y="363.7931034482759" width="13.203448275862069" height="13.203448275862069"></rect><rect shape-rendering="optimizeSpeed" fill="#000" x="350.6896551724138" y="363.7931034482759" width="13.203448275862069" height="13.203448275862069"></rect><rect shape-rendering="optimizeSpeed" fill="#000" x="376.89655172413796" y="363.7931034482759" width="13.203448275862069" height="13.203448275862069"></rect><rect shape-rendering="optimizeSpeed" fill="#000" x="10" y="376.89655172413796" width="13.203448275862069" height="13.203448275862069"></rect><rect shape-rendering="optimizeSpeed" fill="#000" x="23.10344827586207" y="376.89655172413796" width="13.203448275862069" height="13.203448275862069"></rect><rect shape-rendering="optimizeSpeed" fill="#000" x="36.20689655172414" y="376.89655172413796" width="13.203448275862069" height="13.203448275862069"></rect><rect shape-rendering="optimizeSpeed" fill="#000" x="49.310344827586206" y="376.89655172413796" width="13.203448275862069" height="13.203448275862069"></rect><rect shape-rendering="optimizeSpeed" fill="#000" x="62.41379310344828" y="376.89655172413796" width="13.203448275862069" height="13.203448275862069"></rect><rect shape-rendering="optimizeSpeed" fill="#000" x="75.51724137931035" y="376.89655172413796" width="13.203448275862069" height="13.203448275862069"></rect><rect shape-rendering="optimizeSpeed" fill="#000" x="88.62068965517241" y="376.89655172413796" width="13.203448275862069" height="13.203448275862069"></rect><rect shape-rendering="optimizeSpeed" fill="#000" x="114.82758620689656" y="376.89655172413796" width="13.203448275862069" height="13.203448275862069"></rect><rect shape-rendering="optimizeSpeed" fill="#000" x="141.0344827586207" y="376.89655172413796" width="13.203448275862069" height="13.203448275862069"></rect><rect shape-rendering="optimizeSpeed" fill="#000" x="154.13793103448276" y="376.89655172413796" width="13.203448275862069" height="13.203448275862069"></rect><rect shape-rendering="optimizeSpeed" fill="#000" x="167.24137931034483" y="376.89655172413796" width="13.203448275862069" height="13.203448275862069"></rect><rect shape-rendering="optimizeSpeed" fill="#000" x="180.3448275862069" y="376.89655172413796" width="13.203448275862069" height="13.203448275862069"></rect><rect shape-rendering="optimizeSpeed" fill="#000" x="193.44827586206898" y="376.89655172413796" width="13.203448275862069" height="13.203448275862069"></rect><rect shape-rendering="optimizeSpeed" fill="#000" x="232.75862068965517" y="376.89655172413796" width="13.203448275862069" height="13.203448275862069"></rect><rect shape-rendering="optimizeSpeed" fill="#000" x="245.86206896551724" y="376.89655172413796" width="13.203448275862069" height="13.203448275862069"></rect><rect shape-rendering="optimizeSpeed" fill="#000" x="298.2758620689655" y="376.89655172413796" width="13.203448275862069" height="13.203448275862069"></rect><rect shape-rendering="optimizeSpeed" fill="#000" x="337.58620689655174" y="376.89655172413796" width="13.203448275862069" height="13.203448275862069"></rect><rect shape-rendering="optimizeSpeed" fill="#000" x="350.6896551724138" y="376.89655172413796" width="13.203448275862069" height="13.203448275862069"></rect></svg></g></svg>